<?xml version="1.0" encoding="UTF-8"?>
<svg xmlns="http://www.w3.org/2000/svg" id="Calque_1" data-name="Calque 1" viewBox="0 0 96 86.14">
  <defs>
    <style>.cls-1{fill:#fbbc04;}.cls-2{fill:#4285f4;}.cls-3{fill:#34a853;}</style>
  </defs>
  <path class="cls-1" d="M2.21,67.38l31.9-54.61c4,2.39,24.48,13.7,27.78,15.85L30,83.23c-3.49,4.6-32.2-8.86-27.78-15.85Z" transform="translate(0 -4.93)"></path>
  <path class="cls-2" d="M93.85,67.38,62,12.78A16.27,16.27,0,0,0,40,7a15.42,15.42,0,0,0-5.84,21.58l31.9,54.61A16.28,16.28,0,0,0,88,89a15.76,15.76,0,0,0,5.83-21.57Z" transform="translate(0 -4.93)"></path>
  <ellipse class="cls-3" cx="16.01" cy="70.53" rx="16.01" ry="15.61"></ellipse>
</svg>
