<?xml version="1.0" encoding="UTF-8"?>
<svg xmlns="http://www.w3.org/2000/svg" id="Calque_1" data-name="Calque 1" viewBox="0 0 361.73 303.96">
  <defs>
    <style>.cls-1{fill:#fff;}</style>
  </defs>
  <path d="M329.53,0H32.2A32.29,32.29,0,0,0,0,32.2V271.75A32.3,32.3,0,0,0,32.2,304H329.53a32.3,32.3,0,0,0,32.2-32.21V32.2A32.29,32.29,0,0,0,329.53,0Zm-146,67.9c44,0,88,.48,132-.22C332,67.41,339.11,73,339,90.07q-.81,84.15,0,168.31c.17,16.54-5.93,23.44-22.69,23.38q-135-.54-270,0c-16.15.06-23.56-5.47-23.38-22.69.62-56.09.73-112.21-.06-168.3-.28-19.38,8.8-23.39,25.75-23.12C93.53,68.39,138.55,67.9,183.55,67.9ZM38.38,16.52A17.59,17.59,0,1,1,20.79,34.11,17.6,17.6,0,0,1,38.38,16.52Zm25.9,17.59A17.59,17.59,0,1,1,81.87,51.7,17.6,17.6,0,0,1,64.28,34.11Z"></path>
  <circle class="cls-1" cx="81.87" cy="34.11" r="17.59"></circle>
  <circle class="cls-1" cx="38.38" cy="34.11" r="17.59"></circle>
  <path d="M74.37,195.1c-3.41,0-5.85,2.54-5.85,6.14s2.34,6.13,5.75,6.13c3.6,0,5.84-2.62,5.84-6.13S77.78,195.1,74.37,195.1Z"></path>
  <path d="M87.14,174.07c0,21.52,13.92,33.21,32.43,33.21,8,0,14.22-1.56,17.33-3.12l-1.75-6.72a33.86,33.86,0,0,1-13.83,2.73c-16,0-25.22-10.33-25.22-26.4,0-17.23,10.22-27.07,25.61-27.07A30.81,30.81,0,0,1,135,149.43l2.05-6.92c-2.24-1.17-7.4-2.92-15.58-2.92C101.06,139.59,87.14,153.52,87.14,174.07Z"></path>
  <path d="M171.12,207.37c16.75,0,30.48-12,30.48-34.57,0-19.48-11.59-33.21-29.51-33.21-17.53,0-30.48,13.63-30.48,34.48C141.61,193.94,153.78,207.37,171.12,207.37Zm.58-60.86c14.12,0,20.94,13.63,20.94,26.68,0,14.9-7.6,27.27-21,27.27s-20.94-12.56-20.94-26.59C150.67,159.46,157.68,146.51,171.7,146.51Z"></path>
  <path d="M220.72,178.16c.59-9.84,1.08-20.84,1.27-29h.19c1.86,7.79,4.48,16.26,7.6,25.51l10.62,31.27h6.42l11.59-31.85c3.31-9.06,6-17.24,8.28-24.93H267c-.09,8.18.49,19.18,1,28.33l1.65,28.83h8.28l-4.09-65.64H263L251.3,172.41c-2.92,8.28-5.25,15.49-6.91,22.11h-.3c-1.65-6.82-3.89-14-6.62-22.11l-11.19-31.75H215.46l-4.57,65.64H219Z"></path>
</svg>
