<?xml version="1.0" encoding="UTF-8"?>
<svg xmlns="http://www.w3.org/2000/svg" id="Layer_1" data-name="Layer 1" viewBox="0 0 96 96">
  <defs>
    <style>.cls-1{fill-rule:evenodd;}</style>
  </defs>
  <path class="cls-1" d="M52,34.74l-7,7,2.31,6.91.31.31,7,2.3,7-7a14.63,14.63,0,0,1,.71,4.51A14.85,14.85,0,0,1,43.15,62.92L27.69,78.31a7,7,0,0,1-9.88-9.84L33.27,53.08A14.82,14.82,0,0,1,52,34.74Z"></path>
  <path d="M0,40.78a.92.92,0,0,1,.82-.91l11-1.12a.45.45,0,0,0,.39-.32,47.22,47.22,0,0,1,3-7.52.49.49,0,0,0,0-.48l-7.12-9c-.79-.79-.43-1.95,0-2.76a.47.47,0,0,1,.09-.12L17,9.68a2,2,0,0,1,2.84,0l9.06,7.06a.45.45,0,0,0,.53,0,28.47,28.47,0,0,1,7.53-3,.46.46,0,0,0,.33-.39L38.47,2.13a.42.42,0,0,1,.08-.21C39.33.76,40.12,0,40.91,0H53.47a1.85,1.85,0,0,1,2,1.61L56.68,13a.46.46,0,0,0,.32.39,47.41,47.41,0,0,1,7.57,3,.45.45,0,0,0,.46,0L74.51,9.7l0,0c.79-.76,2-.4,2.75,0a.5.5,0,0,1,.12.08l8.86,8.82a2,2,0,0,1,0,2.83l-7.09,9a.47.47,0,0,0,0,.53,28,28,0,0,1,3,7.5.44.44,0,0,0,.39.32l11.39,1.18L94,40c1.18.41,2,1.2,2,2v12.5a1.85,1.85,0,0,1-1.62,2L82.94,57.65a.45.45,0,0,0-.39.32,48.18,48.18,0,0,1-3,7.52.44.44,0,0,0,0,.48L86.68,75c.79.78.43,2,0,2.75a.38.38,0,0,1-.09.12l-8.86,8.82a2,2,0,0,1-2.83,0l-9.06-7.06a.47.47,0,0,0-.53,0,28.27,28.27,0,0,1-7.53,3,.47.47,0,0,0-.33.39L56.3,94.39c0,1.21-.81,1.61-2,1.61H41.72a1.85,1.85,0,0,1-2-1.61L38.51,83a.46.46,0,0,0-.32-.39c-.92-.26-1.83-.57-2.73-.91a.46.46,0,0,1-.16-.75l5.6-5.57a.46.46,0,0,1,.42-.12,28,28,0,1,0-21-20.78.44.44,0,0,1-.12.42l-5.39,5.38a.46.46,0,0,1-.76-.19q-.33-1-.63-2.1a.45.45,0,0,0-.39-.33L1.62,56.47c-1.21,0-1.62-.81-1.62-2V40.78Z"></path>
</svg>
