<?xml version="1.0" encoding="UTF-8"?>
<svg xmlns="http://www.w3.org/2000/svg" id="Layer_1" data-name="Layer 1" viewBox="0 0 96 96">
  <defs>
    <style>.cls-1{fill:#4d6fa9;}.cls-2{fill:#fff;}</style>
  </defs>
  <path class="cls-1" d="M89.38,96H6.62A6.64,6.64,0,0,1,0,89.38V6.62A6.64,6.64,0,0,1,6.62,0H89.38A6.64,6.64,0,0,1,96,6.62V89.38A6.64,6.64,0,0,1,89.38,96"></path>
  <path class="cls-2" d="M81.1,16.55V33.1H66.21a3.32,3.32,0,0,0-3.31,3.31v9.93H79.45V62.9H62.9V96H46.34V62.9H33.1V46.34H46.34V36.41A19.87,19.87,0,0,1,64.55,16.55Z"></path>
</svg>
