<?xml version="1.0" encoding="UTF-8"?>
<svg xmlns="http://www.w3.org/2000/svg" id="Calque_1" data-name="Calque 1" viewBox="0 0 96 80.67">
  <defs>
    <style>.cls-1{fill:#fff;}</style>
  </defs>
  <path d="M87.45,7.67H8.55A8.57,8.57,0,0,0,0,16.21V79.79a8.57,8.57,0,0,0,8.55,8.54h78.9A8.57,8.57,0,0,0,96,79.79V16.21A8.57,8.57,0,0,0,87.45,7.67Zm-38.74,18c11.68,0,23.36.12,35-.06,4.37-.07,6.25,1.42,6.2,5.94q-.21,22.34,0,44.67c0,4.39-1.58,6.22-6,6.2q-35.83-.14-71.67,0C8,82.46,6,81,6.06,76.42c.17-14.89.19-29.78,0-44.66-.07-5.15,2.34-6.21,6.84-6.14C24.82,25.82,36.77,25.69,48.71,25.69ZM10.19,12.05a4.67,4.67,0,1,1-4.67,4.67A4.67,4.67,0,0,1,10.19,12.05Zm6.87,4.67a4.67,4.67,0,1,1,4.67,4.67A4.67,4.67,0,0,1,17.06,16.72Z" transform="translate(0 -7.67)"></path>
  <circle class="cls-1" cx="21.73" cy="9.05" r="4.67"></circle>
  <circle class="cls-1" cx="10.19" cy="9.05" r="4.67"></circle>
  <path d="M18.92,62.42,14.41,44.65h2.43l2.11,9c.53,2.21,1,4.43,1.32,6.14h.05c.29-1.77.84-3.87,1.45-6.17l2.37-9h2.4l2.16,9c.5,2.11,1,4.22,1.24,6.09H30c.37-2,.87-3.92,1.42-6.14l2.35-9h2.34l-5,17.77h-2.4l-2.24-9.26a49.8,49.8,0,0,1-1.16-5.8h-.06a53.3,53.3,0,0,1-1.37,5.8l-2.53,9.26Z" transform="translate(0 -7.67)"></path>
  <path d="M41.66,62.42,37.15,44.65h2.43l2.11,9c.52,2.21,1,4.43,1.31,6.14h.06c.29-1.77.84-3.87,1.45-6.17l2.37-9h2.4l2.16,9c.5,2.11,1,4.22,1.24,6.09h0c.37-2,.87-3.92,1.43-6.14l2.34-9h2.35l-5,17.77h-2.4l-2.24-9.26A54.36,54.36,0,0,1,48,47.36h0a55.75,55.75,0,0,1-1.37,5.8l-2.53,9.26Z" transform="translate(0 -7.67)"></path>
  <path d="M64.4,62.42,59.89,44.65h2.42l2.11,9c.53,2.21,1,4.43,1.32,6.14h.05c.29-1.77.85-3.87,1.45-6.17l2.38-9H72l2.16,9c.5,2.11,1,4.22,1.24,6.09h0c.37-2,.87-3.92,1.42-6.14l2.35-9h2.35l-5,17.77h-2.4l-2.24-9.26a54.36,54.36,0,0,1-1.16-5.8h0a55.75,55.75,0,0,1-1.37,5.8L66.8,62.42Z" transform="translate(0 -7.67)"></path>
</svg>
