<?xml version="1.0" encoding="UTF-8"?>
<svg xmlns="http://www.w3.org/2000/svg" id="Calque_1" data-name="Calque 1" viewBox="0 0 69.86 96">
  <path d="M77.77,13.94a35.76,35.76,0,0,1-21.92-1.48l-.91-.37a38.8,38.8,0,0,0-22-2l-7.68,1.54V56.26L33,54.72a38.8,38.8,0,0,1,22,2,38.73,38.73,0,0,0,23.78,1.62l1-.24A6.28,6.28,0,0,0,84.43,52V19.14A5.36,5.36,0,0,0,77.77,13.94Z" transform="translate(-14.57)"></path>
  <path d="M21.27,8.3v-5a3.35,3.35,0,1,0-6.7,0v89.3a3.35,3.35,0,0,0,6.7,0V8.3Z" transform="translate(-14.57)"></path>
</svg>
