<?xml version="1.0" encoding="UTF-8"?>
<svg xmlns="http://www.w3.org/2000/svg" id="Calque_1" data-name="Calque 1" viewBox="0 0 800 799.71">
  <defs>
    <style>.cls-1{fill:#ffe01a;}.cls-2{fill:none;}</style>
  </defs>
  <rect class="cls-1" width="800" height="799.71" rx="200"></rect>
  <path class="cls-2" d="M252.71,410.83a47.09,47.09,0,0,0-12,.92c-28.6,5.76-44.74,30.14-41.56,61.82,2.88,28.59,31.89,52.77,58.63,53.49a44,44,0,0,0,8.23-.62h0c28.91-4.94,36.52-36.52,31.79-67.48C292.31,424,268.76,411.75,252.71,410.83Zm28.7,82.6c-1,2.47-5.25,5.86-11.32,5.65-6.17-.51-13.06-5-14-16.25-.51-5.55,1.55-12.34,2.88-15.84a14.79,14.79,0,0,0-5.65-17.79,15.21,15.21,0,0,0-21,4.42,33.32,33.32,0,0,0-3.49,8.13l-.42,1.13c-1.33,3.6-3.39,4.63-4.83,4.42-.62-.1-1.54-.51-2.16-2.16-1.65-4.42-.31-17,8-26.13a25.12,25.12,0,0,1,21.6-7.81c8.44,1,15.43,6.17,19.65,14.29,5.66,10.91.51,22.22-2.47,29l-.93,2.06c-1.95,4.52-2.05,8.43-.3,11.11a7.26,7.26,0,0,0,6.37,3.29,13.67,13.67,0,0,0,3.5-.52c1.44-.41,3-.72,3.91.41h0A2.57,2.57,0,0,1,281.41,493.43Z"></path>
  <path class="cls-2" d="M497.52,254.27c1,.21,1.64-1.54.72-2.05-13.27-7.51-33.74-12.55-48.14-12.65a.77.77,0,0,1-.51-.21.84.84,0,0,1-.21-1.23,47.35,47.35,0,0,1,9.05-9.06.91.91,0,0,0-.62-1.64c-20.67,1.23-44.12,11.11-57.6,20.36a1.62,1.62,0,0,1-.72.11.86.86,0,0,1-.72-1c1-5,4.32-11.83,6.07-14.92a.83.83,0,0,0-1.13-1.13c-21.6,11.11-45.87,31-65.52,53.69h0c-.72.71.31,1.85,1.44,1.33,17-12.44,40.32-24,70.77-31.37C444.54,246.15,477.46,249.65,497.52,254.27Z"></path>
  <path class="cls-2" d="M423.87,183.71s-21.6-25.09-28.08-27c-40.11-10.8-126.72,49-182.06,128.06-22.42,32-54.41,88.67-39.09,117.78,1.86,3.6,12.55,12.85,18.31,17.69,9.57-14,25.31-24.07,43.1-27.57,22.63-60.89,60.48-117,110.57-155.62C383.76,206,423.87,183.71,423.87,183.71Z"></path>
  <path class="cls-2" d="M625,487.46a13.92,13.92,0,0,0-8.74-1.65,119.89,119.89,0,0,0-8.34-28.49c-18.3,14.5-42,24.68-59.86,29.83a241.92,241.92,0,0,1-80,8.64c-17.39-1.34-28.8-6.48-33.12,7.61,39.6,14.5,81.56,8.33,81.56,8.33a1.5,1.5,0,0,1,1.65,1.34,1.7,1.7,0,0,1-.93,1.54h0s-32.19,15-83.72-1.23c1.44,11.93,13.16,17.38,18.72,19.54a79.63,79.63,0,0,0,14.71,4c63.46,10.9,122.71-25.41,136.08-34.56,1-.62,1.75,0,.92,1.23l-1.33,1.86C586.18,526.64,542.26,551,485.07,551c-24.89,0-49.78-8.84-58.94-22.32-14.19-20.88-.72-51.53,22.94-48.34l10.39,1.13c29.52,3.29,72.31-.93,107.59-17.28,32.3-15,44.43-31.48,42.58-44.85a18.81,18.81,0,0,0-5.55-10.9c-5.76-5.66-14.92-10.08-30.45-14.5-5.14-1.44-8.64-2.37-12.34-3.6-6.69-2.16-10-3.91-10.7-16.46-.31-5.56-1.33-24.58-1.64-32.5-.62-13.79-2.27-32.71-14-40.53a19.06,19.06,0,0,0-10-3.19,21.48,21.48,0,0,0-6,.62c-6.68,1.13-10.59,4.73-15.53,8.84-14.6,12.14-27,14.2-40.63,13.58-8.22-.41-16.86-1.64-26.84-2.26l-5.87-.31c-22.93-1.23-47.62,18.62-51.73,46.9-5.66,39.4,22.73,59.66,31,71.59,1,1.44,2.26,3.4,2.26,5.35,0,2.26-1.44,4.12-2.88,5.66-23.45,24.17-31,62.54-22.11,94.53a86.27,86.27,0,0,0,4.21,11.52c20.78,48.55,85.07,71.17,147.91,50.6a151.94,151.94,0,0,0,23.87-10.08,125,125,0,0,0,36.51-27.36c16.66-17.38,26.64-36.41,30.45-59.76C631.44,494.66,628.76,489.82,625,487.46ZM540.4,407c-.1,5.14-3.18,9.36-7,9.25s-6.79-4.32-6.69-9.46,3.19-9.36,7-9.26S540.51,401.88,540.4,407Zm-17.28-61.1c7.31-1.24,10.8,6.37,13.48,18.92,1.75,8.44,1.44,16.15-.52,20.68a48.45,48.45,0,0,0-10.9,0c-2.88-3.71-5.55-9.77-7-16.77C515.51,356.21,515.82,347.16,523.12,345.93ZM498.64,413.3c1.75-3.29,6.79-4.22,11.42-1.95s7,6.89,5.35,10.28-6.79,4.22-11.42,2S496.89,416.8,498.64,413.3ZM470,409.49c-.72,1.24-2.37,1-5.76.62a43.45,43.45,0,0,0-22,2.26s-3.49,1.44-5,1.44L436,413.4l-.51-1.23c0-1.44,1.23-3.4,3.29-5.25,2.37-2.16,6.17-4.32,13-5.45,9.46-1,16.35,3.29,18,5.86A1.88,1.88,0,0,1,470,409.49ZM415.53,395.3c-.41-2.16,2.88-5.76,6.38-8.33a36.84,36.84,0,0,1,35.9-4.32c5.66,2.36,11,6.68,13.58,10.9,1.23,2,1.44,3.6.61,4.42-1.23,1.34-4.42-.2-9.67-2.46h0c-5.24-2.37-12-4.94-20.26-4.22-11.62.72-21.7,5.76-24.58,5.45C416.25,396.53,415.74,396,415.53,395.3Z"></path>
  <path d="M462.33,395.51h0c5.25,2.26,8.44,3.8,9.67,2.46.83-.82.62-2.46-.61-4.42-2.58-4.22-7.92-8.54-13.58-10.9a36.84,36.84,0,0,0-35.9,4.32c-3.5,2.57-6.79,6.17-6.38,8.33.21.72.72,1.23,2,1.44,2.88.31,13-4.73,24.58-5.45C450.3,390.57,457.09,393.14,462.33,395.51Z"></path>
  <path d="M280.79,490.85h0c-.93-1.13-2.47-.82-3.91-.41a13.67,13.67,0,0,1-3.5.52,7.26,7.26,0,0,1-6.37-3.29c-1.75-2.68-1.65-6.59.3-11.11l.93-2.06c3-6.79,8.13-18.1,2.47-29-4.22-8.12-11.21-13.26-19.65-14.29a25.12,25.12,0,0,0-21.6,7.81c-8.33,9.16-9.67,21.71-8,26.13.62,1.65,1.54,2.06,2.16,2.16,1.44.21,3.5-.82,4.83-4.42l.42-1.13a33.32,33.32,0,0,1,3.49-8.13,15.21,15.21,0,0,1,21-4.42A14.79,14.79,0,0,1,259,467c-1.33,3.5-3.39,10.29-2.88,15.84.93,11.21,7.82,15.74,14,16.25,6.07.21,10.29-3.18,11.32-5.65A2.57,2.57,0,0,0,280.79,490.85Z"></path>
  <path d="M451.74,401.47c-6.79,1.13-10.59,3.29-13,5.45-2.06,1.85-3.29,3.81-3.29,5.25l.51,1.23,1.13.41c1.55,0,5-1.44,5-1.44a43.45,43.45,0,0,1,22-2.26c3.39.41,5,.62,5.76-.62a1.88,1.88,0,0,0-.21-2.16C468.09,404.76,461.2,400.44,451.74,401.47Z"></path>
  <path d="M504,423.59c4.63,2.26,9.67,1.33,11.42-2s-.72-8-5.35-10.28-9.67-1.34-11.42,1.95C496.89,416.8,499.36,421.32,504,423.59Z"></path>
  <path d="M525.18,385.53a48.45,48.45,0,0,1,10.9,0c2-4.53,2.27-12.24.52-20.68-2.68-12.55-6.17-20.16-13.48-18.92s-7.61,10.28-4.93,22.83C519.63,375.76,522.3,381.82,525.18,385.53Z"></path>
  <path d="M533.72,397.56c-3.81-.1-6.89,4.12-7,9.26s2.88,9.36,6.69,9.46,6.89-4.11,7-9.25S537.52,397.67,533.72,397.56Z"></path>
  <path d="M628.76,470.38h0c-.2-.82-1.74-6.27-3.8-12.86l-4.22-11.21c8.23-12.34,8.33-23.45,7.3-29.72-1.23-7.72-4.42-14.4-10.9-21.19s-19.75-13.89-38.47-19.14l-9.77-2.77c0-.41-.51-23.15-.92-32.92-.31-7-.93-18.1-4.32-28.9-4.12-14.71-11.11-27.57-20.06-35.8,24.38-25.3,39.6-53.28,39.6-77.14-.1-46.08-56.57-60.07-126.11-31.17l-14.7,6.28c-9.06-8.85-18-17.69-27.06-26.54C335.93,78,87.93,354.15,167.24,421.21l17.38,14.71a84.28,84.28,0,0,0-4.83,39.4c1.85,18.51,11.41,36.1,26.74,49.78,14.61,13,33.84,21.19,52.56,21.19,30.86,71.28,101.32,114.89,184,117.36,88.66,2.68,163.13-39.08,194.4-114,2.06-5.24,10.7-29,10.7-49.88S636.27,470.38,628.76,470.38ZM266,526.44h0a44,44,0,0,1-8.23.62c-26.74-.72-55.75-24.9-58.63-53.49-3.18-31.68,13-56.06,41.56-61.82a47.09,47.09,0,0,1,12-.92c16,.92,39.6,13.16,45.06,48.13C302.5,489.92,294.89,521.5,266,526.44ZM236.05,392.72c-17.79,3.5-33.53,13.58-43.1,27.57-5.76-4.84-16.45-14.09-18.31-17.69-15.32-29.11,16.67-85.79,39.09-117.78,55.34-79.09,142-138.86,182.06-128.06,6.48,1.86,28.08,27,28.08,27S383.76,206,346.62,237.1C296.53,275.67,258.68,331.83,236.05,392.72Zm102.14-108.2h0c19.65-22.73,43.92-42.58,65.52-53.69a.83.83,0,0,1,1.13,1.13c-1.75,3.09-5,9.88-6.07,14.92a.86.86,0,0,0,.72,1,1.62,1.62,0,0,0,.72-.11c13.48-9.25,36.93-19.13,57.6-20.36a.91.91,0,0,1,.62,1.64,47.35,47.35,0,0,0-9.05,9.06.84.84,0,0,0,.21,1.23.77.77,0,0,0,.51.21c14.4.1,34.87,5.14,48.14,12.65.92.51.31,2.26-.72,2.05-20.06-4.62-53-8.12-87.12.21-30.45,7.41-53.8,18.93-70.77,31.37C338.5,286.37,337.47,285.23,338.19,284.52ZM629.59,507.1c-3.81,23.35-13.79,42.38-30.45,59.76a125,125,0,0,1-36.51,27.36,151.94,151.94,0,0,1-23.87,10.08c-62.84,20.57-127.13-2-147.91-50.6a86.27,86.27,0,0,1-4.21-11.52c-8.85-32-1.34-70.36,22.11-94.53,1.44-1.54,2.88-3.4,2.88-5.66,0-1.95-1.23-3.91-2.26-5.35-8.23-11.93-36.62-32.19-31-71.59,4.11-28.28,28.8-48.13,51.73-46.9l5.87.31c10,.62,18.62,1.85,26.84,2.26,13.68.62,26-1.44,40.63-13.58,4.94-4.11,8.85-7.71,15.53-8.84a21.48,21.48,0,0,1,6-.62,19.06,19.06,0,0,1,10,3.19c11.72,7.82,13.37,26.74,14,40.53.31,7.92,1.33,26.94,1.64,32.5.72,12.55,4,14.3,10.7,16.46,3.7,1.23,7.2,2.16,12.34,3.6,15.53,4.42,24.69,8.84,30.45,14.5a18.81,18.81,0,0,1,5.55,10.9c1.85,13.37-10.28,29.83-42.58,44.85-35.28,16.35-78.07,20.57-107.59,17.28l-10.39-1.13c-23.66-3.19-37.13,27.46-22.94,48.34,9.16,13.48,34.05,22.32,58.94,22.32,57.19,0,101.11-24.38,117.47-45.56l1.33-1.86c.83-1.23.11-1.85-.92-1.23-13.37,9.15-72.62,45.46-136.08,34.56a79.63,79.63,0,0,1-14.71-4c-5.56-2.16-17.28-7.61-18.72-19.54,51.53,16.25,83.72,1.23,83.72,1.23h0a1.7,1.7,0,0,0,.93-1.54,1.5,1.5,0,0,0-1.65-1.34s-42,6.17-81.56-8.33c4.32-14.09,15.73-8.95,33.12-7.61a241.92,241.92,0,0,0,80-8.64c17.9-5.15,41.56-15.33,59.86-29.83a119.89,119.89,0,0,1,8.34,28.49,13.92,13.92,0,0,1,8.74,1.65C628.76,489.82,631.44,494.66,629.59,507.1Z"></path>
</svg>
