<?xml version="1.0" encoding="UTF-8"?>
<svg xmlns="http://www.w3.org/2000/svg" id="Uploaded_to_svgrepo.com" data-name="Uploaded to svgrepo.com" viewBox="0 0 96 86.4">
  <path d="M12.8,88H85.51A6.41,6.41,0,0,1,80,91.2H12.8A12.84,12.84,0,0,1,0,78.4V27.2a6.41,6.41,0,0,1,3.2-5.51V78.4A9.62,9.62,0,0,0,12.8,88Zm48-67.2A3.2,3.2,0,0,0,64,17.6V8a3.2,3.2,0,0,0-6.4,0v9.6A3.2,3.2,0,0,0,60.8,20.8Zm19.2,0a3.2,3.2,0,0,0,3.2-3.2V8a3.2,3.2,0,0,0-6.4,0v9.6A3.2,3.2,0,0,0,80,20.8Zm-38.4,0a3.2,3.2,0,0,0,3.2-3.2V8a3.2,3.2,0,1,0-6.4,0v9.6A3.2,3.2,0,0,0,41.6,20.8Zm-19.2,0a3.2,3.2,0,0,0,3.2-3.2V8a3.2,3.2,0,0,0-6.4,0v9.6A3.2,3.2,0,0,0,22.4,20.8ZM96,17.6V78.4a6.42,6.42,0,0,1-6.4,6.4H12.8a6.42,6.42,0,0,1-6.4-6.4V17.6a6.42,6.42,0,0,1,6.4-6.4H16v6.4a6.4,6.4,0,0,0,12.8,0V11.2h6.4v6.4a6.4,6.4,0,0,0,12.8,0V11.2h6.4v6.4a6.4,6.4,0,0,0,12.8,0V11.2h6.4v6.4a6.4,6.4,0,0,0,12.8,0V11.2h3.2A6.42,6.42,0,0,1,96,17.6ZM40,62.4a52.92,52.92,0,0,1,3.85-4.14c3.61-3.6,7.34-7.34,7.34-11.86,0-7-5.74-9.6-9.6-9.6S32,39.36,32,46.4a3.2,3.2,0,1,0,6.4,0,2.92,2.92,0,0,1,3.16-3.2c1.48,0,3.24.62,3.24,3.2,0,1.88-3,4.9-5.46,7.34C35.73,57.34,32,61.08,32,65.6a3.2,3.2,0,0,0,3.2,3.2H48a3.2,3.2,0,1,0,0-6.4ZM71.1,52.8a9.5,9.5,0,0,0,2.5-6.4,9.6,9.6,0,1,0-19.2,0,3.2,3.2,0,1,0,6.4,0A3.2,3.2,0,1,1,64,49.6a1.14,1.14,0,0,0-.58.12,3.12,3.12,0,0,0,0,6.16A1.12,1.12,0,0,0,64,56a3.2,3.2,0,1,1-3.2,3.2,3.2,3.2,0,1,0-6.4,0,9.6,9.6,0,1,0,19.2,0A9.5,9.5,0,0,0,71.1,52.8Z" transform="translate(0 -4.8)"></path>
</svg>
