<?xml version="1.0" encoding="UTF-8"?>
<svg xmlns="http://www.w3.org/2000/svg" id="woocommerce" viewBox="0 0 96.21 57.14">
  <defs>
    <style>.cls-1{fill:#7f54b3;}.cls-2{fill:#fff;}</style>
  </defs>
  <path class="cls-1" d="M8.91,19.43H87.05a8.94,8.94,0,0,1,9,9c-.56,42,7.23,39.37-37,38.77l3.85,9.42L46,67.15H9A8.94,8.94,0,0,1,0,58.2V28.38A8.91,8.91,0,0,1,8.91,19.43Z" transform="translate(0 -19.43)"></path>
  <path class="cls-2" d="M5.47,27.58c1.63-2.08,5.77-1.55,5.85,1.6,1.21,8.16,2.54,15.07,3.94,20.73,2.12-2.19,10.88-27.79,14.67-15.34a73.61,73.61,0,0,0,3.71,13.35c1.43-9.06,2.6-26.62,10.19-22.41,3.37,2.58-2.87,10.43-3,18.19-1.6,7.85-.48,12.16-1.56,17.45-5.73,5.75-11.84-10.3-13.77-16.67C21.91,50.21,16,69.21,11.28,59.82q-3-7.66-6.44-29.62A3.35,3.35,0,0,1,5.47,27.58Zm83.86,6.13C78,18.57,63.15,42,70.64,53.54,82,68.71,96.84,45.21,89.33,33.71ZM84.41,44.52C80,59.71,70.86,46.44,77.62,38,82.21,31.15,86,40.09,84.41,44.52ZM64.9,33.71C53.49,18.57,38.73,42,46.21,53.54,57.62,68.71,72.39,45.23,64.9,33.71Zm-5,10.81C55.56,59.71,46.39,46.44,53.16,38,57.73,31.15,61.51,40.09,59.94,44.52Z" transform="translate(0 -19.43)"></path>
</svg>
