<?xml version="1.0" encoding="UTF-8"?>
<svg xmlns="http://www.w3.org/2000/svg" id="Calque_1" data-name="Calque 1" viewBox="0 0 96 96">
  <defs>
    <style>.cls-1{fill:#1b769c;}</style>
  </defs>
  <path class="cls-1" d="M68.33,72.44,53.71,28.94l3.67-.34a8.1,8.1,0,0,0,1-.11,1.73,1.73,0,0,0,1.5-1.89,1.71,1.71,0,0,0-2-1.54c-2.14.11-4.28.34-6.43.35-4,0-8-.09-12-.17-1,0-2-.15-3.07-.19a1.69,1.69,0,0,0-1.84,1.56,1.6,1.6,0,0,0,1.47,1.88c1.11.16,2.23.25,3.35.31a1.23,1.23,0,0,1,1.3.93c1.9,5.31,3.86,10.6,5.77,15.9a2,2,0,0,1,.06,1.23q-4.2,12.68-8.46,25.34c0,.15-.12.28-.26.62L23.06,28.93l4.12-.36c1.23-.1,1.89-.62,2-1.54.16-1.28-.72-2-2.19-2-3.93.18-7.85.32-11.78.47-.33,0-.66,0-1.28,0C20,16.68,28.07,10.92,38.32,8.38c14.33-3.55,28.46,1.3,36.83,9.31a18.59,18.59,0,0,0-2.35.53,7.35,7.35,0,0,0-4.25,9.38,29,29,0,0,0,2.66,5.5,33.16,33.16,0,0,1,3.71,8A20.19,20.19,0,0,1,74.5,52.2c-1.94,6.58-3.94,13.14-5.91,19.71A5.54,5.54,0,0,1,68.33,72.44Z"></path>
  <path class="cls-1" d="M36.53,87.14c4-11.78,8.08-23.48,12.19-35.42C53,63.43,57.19,74.91,61.42,86.51A40.76,40.76,0,0,1,36.53,87.14Z"></path>
  <path class="cls-1" d="M10.73,31.61,30,84.49C10.72,75.47,1.78,51.48,10.73,31.61Z"></path>
  <path class="cls-1" d="M68.71,82.94l2.21-6.42c3.77-10.87,7.58-21.73,11.32-32.61A33.92,33.92,0,0,0,84,29.08c3.8,4.1,5.91,18.31,4,27.12A40,40,0,0,1,68.71,82.94Z"></path>
  <path class="cls-1" d="M48,0A48,48,0,1,0,96,48,48,48,0,0,0,48,0Zm0,93.46A45.46,45.46,0,1,1,93.46,48,45.47,45.47,0,0,1,48,93.46Z"></path>
</svg>
